<?xml version="1.0" standalone="no"?>
<!DOCTYPE svg PUBLIC "-//W3C//DTD SVG 20010904//EN"
 "http://www.w3.org/TR/2001/REC-SVG-20010904/DTD/svg10.dtd">
<svg version="1.0" xmlns="http://www.w3.org/2000/svg"
 width="473.000000pt" height="464.000000pt" viewBox="0 0 473.000000 464.000000"
 preserveAspectRatio="xMidYMid meet">

<g transform="translate(0.000000,464.000000) scale(0.100000,-0.100000)"
fill="#000000" stroke="none">
<path d="M2225 4513 c-361 -29 -608 -69 -935 -149 -338 -84 -889 -281 -952
-340 -47 -46 -52 -78 -44 -300 5 -137 3 -204 -4 -209 -6 -4 -10 -96 -10 -265
l0 -259 73 -3 72 -3 2 -725 3 -724 187 -188 188 -188 201 0 202 0 73 -87 c247
-293 593 -594 936 -813 110 -70 121 -75 173 -75 52 0 63 5 173 75 162 103 379
267 522 393 l120 106 118 1 118 0 -2 265 -2 265 -69 0 -68 0 0 213 0 212 161
-2 161 -1 39 -38 39 -38 0 -438 0 -438 395 0 395 0 0 265 0 265 -75 0 -75 0 0
267 0 268 -77 78 -78 78 78 72 77 72 0 311 c0 294 -1 312 -19 328 -18 17 -19
21 -5 64 27 86 112 406 134 502 24 109 26 136 36 400 8 216 3 248 -45 294 -57
55 -566 240 -891 325 -468 122 -1013 190 -1325 164z m310 -313 c500 -33 1033
-154 1518 -342 l128 -50 -5 -56 c-3 -32 -8 -111 -11 -177 -5 -97 -16 -159 -57
-325 -28 -113 -52 -207 -54 -209 -2 -2 -24 15 -50 38 l-46 43 -724 -4 -724 -3
0 -267 0 -268 70 0 70 0 0 -645 0 -645 -70 0 -70 0 0 -265 0 -264 106 -3 106
-3 -88 -66 c-49 -36 -124 -89 -166 -118 l-78 -52 -90 61 c-114 77 -239 172
-353 268 -109 92 -317 291 -317 303 0 5 46 9 102 9 l103 0 187 187 188 188 0
722 0 722 73 3 72 3 3 268 2 267 -470 0 -470 0 2 -267 3 -268 68 -3 67 -3 0
-607 0 -608 -39 -38 -39 -38 -171 5 -171 6 -35 37 -35 37 0 603 0 604 70 0 70
0 0 270 0 270 -294 0 -295 0 -5 43 c-3 23 -7 88 -10 144 l-4 102 126 50 c475
184 1022 308 1502 340 69 4 132 9 140 9 8 1 83 -3 165 -8z m-1377 -947 l2
-202 -72 -3 -73 -3 -3 -640 -2 -639 62 -63 62 -63 186 0 185 0 63 60 62 59 -2
643 -3 643 -72 3 -73 3 0 205 0 204 408 -2 407 -3 0 -204 0 -205 -67 3 -68 2
0 -748 0 -748 -167 -167 -168 -168 -505 1 -506 0 -167 167 -167 167 -2 745 -3
745 -67 3 -68 3 0 205 0 204 408 -2 407 -3 3 -202z m2949 -365 l173 -173 0
-276 0 -276 -87 -92 -86 -92 86 -87 87 -87 2 -285 3 -285 68 -3 67 -3 0 -205
0 -204 -332 2 -333 3 -3 425 -2 425 -47 47 -47 48 -208 0 -208 0 2 -267 3
-268 68 -3 67 -3 0 -204 0 -205 -405 0 -405 0 0 205 0 205 65 0 65 0 0 705 0
705 -65 0 -65 0 0 210 0 210 682 0 683 0 172 -172z"/>
<path d="M414 3377 c-2 -7 -3 -67 -2 -133 l3 -119 68 -3 67 -3 0 -752 0 -752
163 -163 162 -162 449 0 449 0 153 153 154 152 2 760 3 760 70 5 70 5 0 130 0
130 -335 0 -335 0 0 -130 0 -130 70 -5 70 -5 3 -698 2 -699 -72 -74 -71 -74
-236 0 -237 0 -72 73 -72 72 3 700 2 700 68 3 67 3 0 134 0 135 -330 0 c-263
0 -332 -3 -336 -13z"/>
<path d="M2640 2844 l0 -135 68 2 67 3 3 -777 2 -777 -70 0 -70 0 0 -135 0
-135 335 0 335 0 0 135 0 135 -70 0 -70 0 0 340 0 340 258 0 258 0 67 -68 68
-68 2 -405 2 -404 263 -3 262 -2 0 135 0 135 -70 0 -70 0 0 308 0 307 -105
105 -105 105 105 105 105 105 0 240 0 240 -153 153 -152 152 -633 0 -632 0 0
-136z m1112 -201 l67 -68 2 -159 1 -159 -73 -73 -73 -74 -253 0 -253 0 0 300
0 300 258 0 258 0 66 -67z"/>
<path d="M3240 2415 l0 -225 196 0 196 0 59 51 59 52 0 116 0 115 -57 58 -57
58 -198 0 -198 0 0 -225z m414 126 l39 -40 -2 -93 c-2 -90 -3 -94 -34 -125
l-32 -32 -162 -3 -163 -3 0 167 0 168 158 0 158 0 38 -39z"/>
</g>
</svg>
